<svg width="21.000000" height="16.000000" viewBox="0 0 21 16" fill="none" xmlns="http://www.w3.org/2000/svg" xmlns:xlink="http://www.w3.org/1999/xlink">
	<desc>
			Created with Pixso.
	</desc>
	<defs/>
	<path id="Vector" d="M20.05 1.58C19.99 1.5 19.91 1.44 19.82 1.39C19.73 1.35 19.63 1.33 19.53 1.33L5.65 1.33L6.09 2.66L18.66 2.66L16.88 10.66L6.88 10.66L3.83 1.02C3.8 0.91 3.74 0.82 3.67 0.74C3.59 0.67 3.5 0.61 3.39 0.58L0.66 -0.26C0.58 -0.28 0.49 -0.29 0.4 -0.28C0.31 -0.28 0.23 -0.25 0.15 -0.21C-0.01 -0.13 -0.12 0.02 -0.18 0.19C-0.23 0.35 -0.21 0.54 -0.13 0.7C-0.04 0.85 0.1 0.97 0.27 1.02L2.66 1.75L5.72 11.42L4.63 12.32L4.54 12.4C4.27 12.71 4.12 13.11 4.11 13.52C4.1 13.93 4.23 14.34 4.49 14.66C4.67 14.88 4.9 15.06 5.16 15.17C5.42 15.29 5.71 15.34 5.99 15.33L17.12 15.33C17.3 15.33 17.47 15.26 17.59 15.13C17.72 15.01 17.79 14.84 17.79 14.66C17.79 14.48 17.72 14.32 17.59 14.19C17.47 14.07 17.3 14 17.12 14L5.89 14C5.81 13.99 5.74 13.97 5.67 13.93C5.61 13.89 5.55 13.83 5.51 13.77C5.48 13.7 5.46 13.62 5.46 13.55C5.46 13.47 5.48 13.4 5.51 13.33L7.12 12L17.41 12C17.57 12 17.72 11.95 17.84 11.85C17.96 11.76 18.05 11.63 18.08 11.48L20.19 2.14C20.22 2.04 20.21 1.94 20.19 1.84C20.16 1.74 20.11 1.65 20.05 1.58Z" fill="#359740" fill-opacity="1.000000" fill-rule="nonzero"/>
</svg>
