<svg width="20.000000" height="20.000000" viewBox="0 0 20 20" fill="none" xmlns="http://www.w3.org/2000/svg" xmlns:xlink="http://www.w3.org/1999/xlink">
	<desc>
			Created with Pixso.
	</desc>
	<defs/>
	<path id="Vector" d="M0 10.05C0 15.02 3.61 19.16 8.33 20L8.33 12.77L5.83 12.77L5.83 10L8.33 10L8.33 7.77C8.33 5.27 9.94 3.88 12.22 3.88C12.94 3.88 13.72 4 14.44 4.11L14.44 6.66L13.16 6.66C11.94 6.66 11.66 7.27 11.66 8.05L11.66 10L14.33 10L13.88 12.77L11.66 12.77L11.66 20C16.38 19.16 20 15.02 20 10.05C20 4.52 15.5 0 10 0C4.5 0 0 4.52 0 10.05Z" fill="#70737C" fill-opacity="1.000000" fill-rule="evenodd"/>
</svg>
