<svg width="28.000000" height="36.000000" viewBox="0 0 28 36" fill="none" xmlns="http://www.w3.org/2000/svg" xmlns:xlink="http://www.w3.org/1999/xlink">
	<desc>
			Created with Pixso.
	</desc>
	<defs/>
	<path id="Vector" d="M26.26 15.77C25.49 14.04 24.37 12.49 22.98 11.21L21.83 10.15C21.79 10.12 21.74 10.1 21.69 10.08C21.64 10.07 21.59 10.07 21.54 10.08C21.48 10.1 21.44 10.12 21.4 10.16C21.36 10.19 21.33 10.24 21.31 10.29L20.8 11.76C20.48 12.69 19.89 13.63 19.05 14.56C19 14.62 18.93 14.64 18.89 14.64C18.85 14.65 18.78 14.64 18.72 14.58C18.66 14.54 18.64 14.47 18.64 14.39C18.79 12.01 18.07 9.32 16.52 6.4C15.22 3.97 13.43 2.07 11.19 0.75L9.56 -0.21C9.34 -0.34 9.07 -0.17 9.08 0.08L9.17 1.98C9.23 3.28 9.08 4.42 8.72 5.38C8.29 6.55 7.66 7.63 6.86 8.6C6.3 9.28 5.67 9.89 4.98 10.43C3.31 11.71 1.95 13.36 1.01 15.24C0.07 17.14 -0.42 19.23 -0.42 21.34C-0.42 23.21 -0.05 25.02 0.67 26.73C1.38 28.37 2.39 29.86 3.66 31.12C4.95 32.38 6.43 33.38 8.09 34.07C9.81 34.79 11.63 35.16 13.51 35.16C15.39 35.16 17.21 34.79 18.93 34.08C20.58 33.39 22.09 32.38 23.36 31.12C24.64 29.85 25.65 28.37 26.35 26.73C27.07 25.03 27.45 23.2 27.44 21.35C27.44 19.42 27.05 17.54 26.26 15.77Z" fill="#E55C5C" fill-opacity="1.000000" fill-rule="nonzero"/>
</svg>
