<svg width="19.000000" height="19.000000" viewBox="0 0 19 19" fill="none" xmlns="http://www.w3.org/2000/svg" xmlns:xlink="http://www.w3.org/1999/xlink">
	<desc>
			Created with Pixso.
	</desc>
	<defs/>
	<path id="Vector" d="M8.99 5.87C7.27 5.87 5.87 7.27 5.87 9C5.87 10.72 7.27 12.12 8.99 12.12C10.72 12.12 12.12 10.72 12.12 9C12.12 7.27 10.72 5.87 8.99 5.87ZM18.37 9C18.37 7.7 18.38 6.42 18.3 5.13C18.23 3.63 17.89 2.3 16.79 1.2C15.69 0.1 14.36 -0.24 12.86 -0.31C11.57 -0.38 10.29 -0.37 9 -0.37C7.7 -0.37 6.42 -0.38 5.13 -0.31C3.63 -0.24 2.3 0.1 1.2 1.2C0.1 2.3 -0.24 3.63 -0.31 5.13C-0.38 6.42 -0.37 7.7 -0.37 9C-0.37 10.29 -0.38 11.57 -0.31 12.86C-0.24 14.36 0.11 15.69 1.2 16.79C2.3 17.89 3.63 18.23 5.13 18.3C6.42 18.37 7.71 18.36 9 18.36C10.29 18.36 11.57 18.37 12.86 18.3C14.36 18.23 15.7 17.89 16.79 16.79C17.89 15.69 18.23 14.36 18.3 12.86C18.38 11.57 18.37 10.29 18.37 9ZM8.99 13.8C6.33 13.8 4.19 11.66 4.19 9C4.19 6.33 6.33 4.19 8.99 4.19C11.66 4.19 13.8 6.33 13.8 9C13.8 11.66 11.66 13.8 8.99 13.8ZM14 5.11C13.38 5.11 12.88 4.61 12.88 3.99C12.88 3.37 13.38 2.87 14 2.87C14.62 2.87 15.12 3.37 15.12 3.99C15.12 4.14 15.09 4.28 15.04 4.42C14.98 4.56 14.9 4.68 14.79 4.79C14.69 4.89 14.57 4.97 14.43 5.03C14.29 5.09 14.15 5.11 14 5.11Z" fill="#70737C" fill-opacity="1.000000" fill-rule="nonzero"/>
</svg>
