<svg width="21.000000" height="21.000000" viewBox="0 0 21 21" fill="none" xmlns="http://www.w3.org/2000/svg" xmlns:xlink="http://www.w3.org/1999/xlink">
	<desc>
			Created with Pixso.
	</desc>
	<defs/>
	<path id="Vector" d="M17.72 17.38C18.54 16.49 19.04 15.29 19.04 13.98C19.04 13.3 18.76 12.55 18.53 11.96C19.64 11.03 20.5 9.75 20.5 8.18C20.5 5.38 18.22 3.12 15.43 3.12C14.86 3.12 14.44 3.26 13.93 3.43C13.42 1.61 11.62 0.22 9.63 0.22C8.7 0.22 8.08 0.31 7.37 0.81C6.58 -0.12 5.16 -0.5 3.84 -0.5C1.44 -0.5 -0.5 1.44 -0.5 3.84C-0.5 5.32 0.33 6.59 1.46 7.37C0.75 8.14 0.22 9.22 0.22 10.36C0.22 12.53 2 14.27 4.09 14.59C4.05 14.84 3.84 15.16 3.84 15.43C3.84 18.23 6.11 20.5 8.91 20.5C10.38 20.5 11.69 19.53 12.62 18.53C12.98 18.8 13.51 19.04 13.98 19.04C14.99 19.04 15.93 18.74 16.71 18.24C17.2 18.93 17.62 19.58 17.96 20.16C18.08 20.38 18.3 20.5 18.53 20.5C18.64 20.5 18.75 20.47 18.85 20.41C19.17 20.23 19.28 19.83 19.1 19.52C18.72 18.87 18.26 18.15 17.72 17.38ZM13.4 17.48C13.17 17.3 12.9 17.21 12.62 17.21C12.27 17.21 11.91 17.36 11.66 17.63C11.12 18.21 10.05 19.18 8.91 19.18C6.86 19.18 5.2 17.55 5.15 15.53C5.17 15.49 5.18 15.47 5.19 15.44C5.26 15.26 5.35 15.05 5.39 14.79C5.44 14.44 5.36 14.09 5.15 13.81C4.94 13.53 4.63 13.34 4.29 13.29C2.93 13.09 1.53 11.93 1.53 10.36C1.53 9.65 1.86 8.87 2.43 8.26C2.68 7.97 2.81 7.6 2.77 7.22C2.73 6.84 2.53 6.5 2.21 6.29C1.32 5.68 0.81 4.78 0.81 3.84C0.81 2.17 2.17 0.81 3.84 0.81C4.95 0.81 5.92 1.14 6.37 1.66C6.64 1.96 7 2.12 7.37 2.12C7.63 2.12 7.89 2.04 8.12 1.88C8.52 1.6 8.83 1.53 9.63 1.53C11 1.53 12.31 2.5 12.67 3.79C12.77 4.13 13.01 4.42 13.32 4.59C13.51 4.69 13.72 4.75 13.93 4.75C14.07 4.75 14.21 4.73 14.35 4.68L14.39 4.67C14.86 4.51 15.1 4.43 15.42 4.43C17.5 4.43 19.18 6.12 19.18 8.18C19.18 9.44 18.36 10.38 17.68 10.95C17.24 11.32 17.09 11.92 17.31 12.46C17.44 12.8 17.73 13.5 17.73 13.98C17.73 14.85 17.43 15.66 16.93 16.29C16.05 15.13 15.05 13.89 13.99 12.66L16.49 7.67C16.65 7.34 16.52 6.95 16.19 6.79C15.87 6.62 15.47 6.75 15.31 7.08L13.05 11.59C12.04 10.45 11 9.33 9.98 8.28L10.64 4.19C10.7 3.83 10.45 3.5 10.09 3.44C9.74 3.38 9.4 3.62 9.34 3.98L8.83 7.13C8.1 6.39 7.38 5.71 6.71 5.12L6.71 3.43C6.71 3.07 6.42 2.78 6.06 2.78C5.7 2.78 5.4 3.07 5.4 3.43L5.4 4C4.73 3.47 4.16 3.07 3.73 2.85C3.4 2.68 3.01 2.82 2.85 3.14C2.68 3.47 2.82 3.86 3.14 4.02C3.71 4.31 4.57 4.96 5.58 5.85C5.6 5.86 5.61 5.87 5.62 5.89C6.68 6.82 7.91 8.01 9.19 9.34L5.4 9.34C5.04 9.34 4.75 9.63 4.75 10C4.75 10.36 5.04 10.65 5.4 10.65L10.36 10.65C10.38 10.65 10.4 10.64 10.43 10.64C11.09 11.35 11.76 12.1 12.41 12.84L8.51 13.96C8.16 14.06 7.95 14.42 8.06 14.77C8.14 15.05 8.39 15.25 8.68 15.25C8.74 15.25 8.8 15.24 8.87 15.22L13.35 13.93C14.29 15.04 15.17 16.14 15.94 17.17C15.37 17.53 14.69 17.74 13.97 17.74C13.9 17.73 13.65 17.65 13.4 17.48Z" fill="#359740" fill-opacity="1.000000" fill-rule="nonzero"/>
</svg>
