<svg width="21.000000" height="21.000000" viewBox="0 0 21 21" fill="none" xmlns="http://www.w3.org/2000/svg" xmlns:xlink="http://www.w3.org/1999/xlink">
	<desc>
			Created with Pixso.
	</desc>
	<defs/>
	<path id="Vector" d="M18.38 5.17C17.13 3.27 15.18 2.07 13.09 1.73C13.11 1.59 13.09 1.43 13.01 1.29C12.86 1.03 12.55 0.88 12.24 0.94L7.91 1.81L7.32 0.03C7.23 -0.23 7 -0.41 6.72 -0.44C6.44 -0.47 6.17 -0.34 6.03 -0.1L4.74 2.03C3.86 1.38 2.78 0.94 1.69 0.94C1.3 0.94 0.98 1.25 0.98 1.63C0.98 2.01 1.3 2.32 1.69 2.32C2.52 2.32 3.35 2.7 4 3.22L-0.12 5.88C-0.39 6.05 -0.5 6.36 -0.41 6.65C-0.32 6.94 -0.04 7.14 0.27 7.14L2.17 7.14L1 11.09C0.92 11.4 1.05 11.71 1.32 11.87C1.44 11.94 1.57 11.96 1.69 11.96C1.71 14.22 2.74 16.4 4.64 17.81C7.46 19.88 11.56 20.94 16.83 20.94C17.03 20.94 17.23 20.94 17.43 20.93C19.08 20.91 20.48 19.68 20.69 18.09C21.37 12.89 20.59 8.54 18.38 5.17ZM19.28 17.92C19.16 18.84 18.36 19.54 17.41 19.55C12.18 19.63 8.17 18.68 5.51 16.71C3.65 15.33 2.81 13.02 3.23 10.8L4.25 9.85C3.31 12.12 3.99 14.72 5.95 16.17C8.38 17.96 12.04 18.87 16.83 18.87C17.02 18.87 17.21 18.87 17.41 18.86C17.8 18.86 18.12 18.54 18.11 18.16C18.1 17.78 17.78 17.49 17.4 17.49C17.39 17.49 17.39 17.49 17.38 17.49C12.65 17.57 9.08 16.74 6.82 15.07C5.29 13.95 4.82 11.85 5.71 10.08L7.55 12.4C7.68 12.56 7.89 12.66 8.11 12.66C8.19 12.66 8.26 12.64 8.33 12.62C8.63 12.53 8.82 12.27 8.82 11.97L8.82 7.06L13.89 6.45C14.21 6.4 14.47 6.16 14.51 5.85C14.56 5.54 14.38 5.25 14.08 5.12L11.07 3.93L11.98 3.01C14.01 3.05 15.99 4.08 17.18 5.9C19.2 9 19.91 13.04 19.28 17.92ZM4.94 4.27C4.95 4.26 4.95 4.25 4.96 4.25C5.15 4.54 5.26 4.83 5.26 5.07C5.26 5.45 5.58 5.76 5.97 5.76C6.36 5.76 6.68 5.45 6.68 5.07C6.68 4.42 6.34 3.68 5.78 3.01L6.45 1.92L6.75 2.83C6.87 3.16 7.22 3.36 7.57 3.29L10.26 2.75L9.3 3.71C9.14 3.87 9.07 4.11 9.12 4.33C9.17 4.55 9.33 4.74 9.55 4.83L11.01 5.4L8.01 5.77C7.67 5.81 7.39 6.11 7.39 6.45L7.39 9.94L5.61 7.7C5.49 7.54 5.3 7.45 5.1 7.43C5.09 7.43 5.06 7.43 5.05 7.43C4.87 7.43 4.69 7.5 4.55 7.63L3.11 8.98L3.8 6.63C3.87 6.43 3.82 6.21 3.69 6.04C3.55 5.87 3.34 5.76 3.12 5.76L2.62 5.76L4.94 4.27Z" fill="#359740" fill-opacity="1.000000" fill-rule="nonzero"/>
</svg>
