<svg width="14.000000" height="18.000000" viewBox="0 0 14 18" fill="none" xmlns="http://www.w3.org/2000/svg" xmlns:xlink="http://www.w3.org/1999/xlink">
	<desc>
			Created with Pixso.
	</desc>
	<defs/>
	<path id="Vector" d="M5.25 1.12L3.72 -0.29C3.42 -0.58 2.93 -0.58 2.62 -0.29L1.1 1.12C0.4 1.77 0 2.68 0 3.63L0 9.62C0 10.1 0.39 10.51 0.87 10.51L2.66 10.51L2.66 12.08C2.26 12.27 1.94 12.68 1.94 13.17L1.94 16.31C1.94 16.97 2.5 17.5 3.17 17.5L3.17 17.5C3.84 17.5 4.37 16.97 4.37 16.31L4.37 13.17C4.37 12.68 4.09 12.27 3.69 12.08L3.69 10.5L3.69 7.98C3.69 7.79 3.84 7.66 4.03 7.66L4.03 7.66C4.22 7.66 4.37 7.79 4.37 7.98L4.37 10.51L5.46 10.51C5.94 10.51 6.36 10.1 6.36 9.62L6.36 3.63C6.36 2.68 5.95 1.77 5.25 1.12ZM13.49 -0.08L13.45 -0.08C13.15 -0.08 12.92 0.14 12.92 0.43L12.92 3.2C12.92 3.61 12.58 3.95 12.17 3.95L12.17 3.95C11.76 3.95 11.41 3.61 11.41 3.2L11.41 0.43C11.41 0.14 11.2 -0.08 10.9 -0.08L10.9 -0.08C10.6 -0.08 10.38 0.14 10.38 0.43L10.38 3.2C10.38 3.61 10.04 3.95 9.63 3.95L9.63 3.95C9.22 3.95 8.9 3.61 8.9 3.2L8.9 0.43C8.9 0.14 8.65 -0.08 8.36 -0.08L8.36 -0.08C8.06 -0.08 7.83 0.14 7.83 0.43L7.83 9.58C7.83 10.08 8.24 10.51 8.74 10.51L10.42 10.51L10.42 12.08C9.98 12.27 9.7 12.68 9.7 13.17L9.7 16.31C9.7 16.97 10.25 17.5 10.92 17.5L10.92 17.5C11.59 17.5 12.13 16.97 12.13 16.31L12.13 13.17C12.13 12.68 11.85 12.27 11.41 12.08L11.41 7.94C11.49 7.77 11.59 7.64 11.77 7.64C11.96 7.64 12.13 7.79 12.13 7.98L12.13 10.51L13.11 10.51C13.61 10.51 14 10.08 14 9.58L14 0.43C14 0.14 13.78 -0.08 13.49 -0.08Z" fill="#359740" fill-opacity="1.000000" fill-rule="nonzero"/>
</svg>
